<svg width="21" height="21" viewBox="0 0 21 21" fill="none" xmlns="http://www.w3.org/2000/svg">
<g clip-path="url(#clip0_434_1139)">
<path fill-rule="evenodd" clip-rule="evenodd" d="M6.48248 0.877765C7.54783 0.83024 7.88842 0.818359 10.5974 0.818359C13.3063 0.818359 13.6469 0.83024 14.7162 0.873805C15.7815 0.92133 16.5063 1.09163 17.1399 1.33717C17.7934 1.59459 18.3518 1.93519 18.9063 2.48964C19.4607 3.0441 19.8053 3.59855 20.0587 4.25598C20.3043 4.8936 20.4746 5.61836 20.5221 6.67974C20.5696 7.74509 20.5815 8.08172 20.5815 10.7946C20.5815 13.5075 20.5696 13.8441 20.5221 14.9095C20.4746 15.9748 20.3043 16.6996 20.0587 17.3333C19.8013 17.9867 19.4607 18.5451 18.9063 19.0996C18.3518 19.6541 17.7974 19.9986 17.1399 20.2521C16.5023 20.4976 15.7776 20.6679 14.7162 20.7154C13.6508 20.763 13.3142 20.7748 10.6013 20.7748C7.88842 20.7748 7.55179 20.763 6.48644 20.7154C5.4211 20.6679 4.69635 20.4976 4.06268 20.2521C3.40922 19.9946 2.8508 19.6541 2.29635 19.0996C1.74189 18.5451 1.39734 17.9907 1.14387 17.3333C0.898322 16.6956 0.728025 15.9709 0.6805 14.9095C0.632975 13.8441 0.621094 13.5036 0.621094 10.7946C0.621094 8.08568 0.632975 7.74509 0.6805 6.6837C0.728025 5.61836 0.898322 4.8936 1.14387 4.25994C1.4013 3.60648 1.74189 3.04806 2.29635 2.4936C2.8508 1.93915 3.40526 1.59459 4.06268 1.34113C4.69635 1.09559 5.4211 0.92529 6.48248 0.877765ZM14.629 2.67578C13.5756 2.62826 13.2627 2.61638 10.5974 2.61638C7.93199 2.61638 7.61912 2.6243 6.56565 2.67578C5.59139 2.71935 5.06466 2.88568 4.71219 3.02034C4.24486 3.19855 3.91219 3.41638 3.56367 3.76489C3.21516 4.11341 3.0013 4.44608 2.81912 4.91341C2.6805 5.26588 2.51813 5.79261 2.47456 6.76687C2.42704 7.82034 2.41516 8.13321 2.41516 10.7986C2.41516 13.464 2.42704 13.7768 2.47456 14.8303C2.51813 15.8045 2.68446 16.3313 2.81912 16.6838C2.99734 17.1511 3.21516 17.4838 3.56367 17.8323C3.91219 18.1808 4.24486 18.3946 4.71219 18.5768C5.06466 18.7154 5.59139 18.8778 6.56565 18.9214C7.61912 18.9689 7.93199 18.9808 10.5974 18.9808C13.2627 18.9808 13.5756 18.9689 14.629 18.9214C15.6033 18.8778 16.13 18.7115 16.4825 18.5768C16.9498 18.3986 17.2825 18.1808 17.631 17.8323C17.9795 17.4838 18.1934 17.1511 18.3756 16.6838C18.5142 16.3313 18.6766 15.8045 18.7201 14.8303C18.7677 13.7768 18.7795 13.464 18.7795 10.7986C18.7795 8.13321 18.7677 7.82034 18.7201 6.76687C18.6766 5.79261 18.5102 5.26588 18.3756 4.91341C18.1974 4.44608 17.9795 4.11341 17.631 3.76489C17.2825 3.41638 16.9498 3.20251 16.4825 3.02034C16.13 2.88172 15.6033 2.71935 14.629 2.67578Z" fill="#F5F8F5"/>
<path fill-rule="evenodd" clip-rule="evenodd" d="M5.47266 10.7947C5.47266 7.96299 7.76969 5.66992 10.5974 5.66992C13.4252 5.66992 15.7222 7.96695 15.7222 10.7947C15.7222 13.6224 13.4252 15.9195 10.5974 15.9195C7.76969 15.9195 5.47266 13.6264 5.47266 10.7947ZM7.27068 10.7947C7.27068 12.6323 8.75979 14.1215 10.5974 14.1215C12.4351 14.1215 13.9242 12.6323 13.9242 10.7947C13.9242 8.95705 12.4351 7.46794 10.5974 7.46794C8.75979 7.46794 7.27068 8.95705 7.27068 10.7947Z" fill="#F5F8F5"/>
<path d="M15.9226 6.66356C16.5831 6.66356 17.1186 6.12807 17.1186 5.46752C17.1186 4.80696 16.5831 4.27148 15.9226 4.27148C15.262 4.27148 14.7266 4.80696 14.7266 5.46752C14.7266 6.12807 15.262 6.66356 15.9226 6.66356Z" fill="#F5F8F5"/>
</g>
<defs>
<clipPath id="clip0_434_1139">
<rect width="21" height="21" fill="white"/>
</clipPath>
</defs>
</svg>
