<svg width="21" height="21" viewBox="0 0 21 21" fill="none" xmlns="http://www.w3.org/2000/svg">
<g clip-path="url(#clip0_434_1135)">
<path d="M10.5573 0.314453H10.5521C4.76263 0.314453 0.0546875 5.0237 0.0546875 10.8145C0.0546875 13.1113 0.794937 15.2402 2.05362 16.9688L0.745063 20.8695L4.781 19.5793C6.44131 20.6792 8.42188 21.3145 10.5573 21.3145C16.3468 21.3145 21.0547 16.6039 21.0547 10.8145C21.0547 5.02502 16.3468 0.314453 10.5573 0.314453ZM16.667 15.1418C16.4137 15.8571 15.4083 16.4503 14.6064 16.6236C14.0577 16.7404 13.3411 16.8336 10.9288 15.8335C7.84306 14.5551 5.85594 11.4195 5.70106 11.2161C5.55275 11.0126 4.45419 9.55577 4.45419 8.04902C4.45419 6.54227 5.21938 5.80858 5.52781 5.49358C5.78113 5.23502 6.19981 5.11689 6.60144 5.11689C6.73137 5.11689 6.84819 5.12345 6.95319 5.1287C7.26163 5.14183 7.4165 5.1602 7.61994 5.64714C7.87325 6.25745 8.49012 7.7642 8.56362 7.91908C8.63844 8.07395 8.71325 8.28395 8.60825 8.48739C8.50981 8.69739 8.42319 8.79058 8.26831 8.96908C8.11344 9.14758 7.96644 9.28408 7.81156 9.4757C7.66981 9.64239 7.50969 9.82089 7.68819 10.1293C7.86669 10.4312 8.48356 11.4379 9.39181 12.2464C10.5639 13.2898 11.5141 13.6232 11.8541 13.765C12.1074 13.87 12.4093 13.845 12.5943 13.6481C12.8293 13.3948 13.1193 12.9748 13.4146 12.5614C13.6246 12.2648 13.8898 12.228 14.168 12.333C14.4515 12.4315 15.9517 13.173 16.2601 13.3266C16.5686 13.4815 16.772 13.555 16.8468 13.6849C16.9203 13.8148 16.9203 14.4251 16.667 15.1418Z" fill="#FEFEFE"/>
</g>
<defs>
<clipPath id="clip0_434_1135">
<rect width="21" height="21" fill="white"/>
</clipPath>
</defs>
</svg>
